<?xml version="1.0" standalone="no"?>
<!DOCTYPE svg PUBLIC "-//W3C//DTD SVG 20010904//EN"
 "http://www.w3.org/TR/2001/REC-SVG-20010904/DTD/svg10.dtd">
<svg version="1.0" xmlns="http://www.w3.org/2000/svg"
 width="512.000000pt" height="512.000000pt" viewBox="0 0 512.000000 512.000000"
 preserveAspectRatio="xMidYMid meet">
<metadata>
Created by potrace 1.14, written by Peter Selinger 2001-2017
</metadata>
<g transform="translate(0.000000,512.000000) scale(0.100000,-0.100000)"
fill="#000000" stroke="none">
<path d="M1539 4566 c-3 -3 -48 -8 -100 -11 -51 -3 -106 -7 -122 -10 -15 -3
-55 -10 -90 -16 -34 -5 -84 -17 -112 -25 -27 -8 -51 -14 -52 -14 -2 -1 -8 -2
-15 -5 -7 -2 -44 -14 -83 -26 -38 -12 -74 -26 -79 -31 -6 -4 -18 -8 -28 -8
-10 0 -18 -5 -18 -12 0 -6 -3 -8 -6 -5 -7 7 -96 -39 -145 -74 -15 -10 -30 -19
-33 -19 -6 0 -41 -29 -96 -80 -15 -14 -44 -47 -65 -75 -21 -27 -40 -52 -44
-55 -29 -23 -101 -126 -136 -196 -65 -128 -89 -242 -82 -396 3 -68 8 -136 12
-153 20 -98 90 -271 122 -303 7 -7 13 -17 13 -21 0 -4 8 -18 18 -29 9 -12 28
-36 42 -54 35 -45 127 -134 169 -166 20 -15 42 -32 49 -39 42 -40 317 -193
346 -193 9 0 16 -4 16 -10 0 -5 8 -10 19 -10 10 0 32 -7 47 -15 16 -8 37 -15
46 -15 19 0 22 8 -46 -130 -35 -69 -56 -131 -50 -142 3 -4 1 -8 -4 -8 -10 0
-17 -25 -38 -130 -14 -76 -16 -99 -17 -205 -1 -101 4 -165 18 -223 3 -12 7
-30 9 -40 12 -51 73 -190 114 -259 56 -93 56 -93 147 -186 79 -80 93 -92 150
-127 22 -13 41 -28 43 -32 2 -4 10 -8 18 -8 8 0 31 -15 51 -32 19 -18 39 -32
44 -31 5 2 9 -1 9 -6 0 -5 38 -28 85 -52 47 -23 85 -44 85 -46 0 -24 -125
-214 -155 -235 -6 -5 -6 -8 0 -8 6 0 6 -3 -1 -8 -34 -23 -274 -361 -338 -477
-16 -27 -33 -56 -38 -62 -6 -7 -7 -13 -2 -13 4 0 3 -5 -4 -12 -7 -7 -12 -16
-12 -20 0 -4 650 -8 1444 -8 l1444 0 33 34 c112 119 280 416 320 566 2 8 7 17
11 20 4 3 8 17 10 30 2 14 7 31 11 38 5 6 6 12 3 12 -3 0 -1 11 4 25 12 33 22
74 24 103 0 12 5 22 9 22 5 0 7 6 4 13 -2 6 -1 19 3 27 4 8 11 35 14 60 3 25
8 54 10 66 2 12 7 45 11 74 4 29 9 62 11 74 18 94 24 452 11 621 -17 199 -36
343 -48 351 -5 3 -7 9 -5 13 6 9 -31 161 -63 262 -29 91 -69 179 -81 179 -5 0
-9 3 -7 8 1 4 -8 18 -19 30 l-21 23 42 65 c144 219 158 488 38 744 -39 84
-103 193 -115 198 -4 2 -8 8 -8 13 0 17 -195 293 -244 345 -6 7 -22 27 -36 45
-50 67 -100 107 -128 104 -27 -3 -122 -97 -122 -121 0 -4 -6 -15 -14 -23 -8
-9 -28 -44 -45 -78 -26 -50 -35 -60 -51 -56 -11 3 -20 9 -20 14 0 5 -7 9 -15
9 -8 0 -15 4 -15 8 0 4 -15 16 -32 27 -33 19 -258 237 -258 250 0 6 -13 23
-42 56 -10 10 -18 21 -18 23 0 2 -16 32 -35 65 -19 34 -34 62 -33 64 0 1 -2
12 -6 24 -14 45 -116 48 -116 4 0 -8 -3 -12 -6 -8 -13 12 -77 -100 -91 -157
-9 -39 -9 -81 -2 -103 10 -27 -6 -23 -67 19 -23 15 -45 28 -50 28 -4 0 -15 6
-23 14 -9 8 -72 42 -141 76 -69 34 -133 66 -142 71 -10 5 -23 9 -29 9 -6 0
-25 6 -42 14 -28 13 -98 37 -119 42 -5 1 -9 2 -10 4 -2 1 -10 3 -18 5 -8 2
-42 10 -75 19 -108 28 -297 66 -306 61 -4 -3 -10 -1 -14 5 -4 6 -9 9 -13 6 -4
-2 -44 2 -89 8 -45 7 -125 12 -177 12 -53 -1 -97 3 -99 7 -1 5 -5 6 -8 3z"/>
</g>
</svg>
